<svg xmlns="http://www.w3.org/2000/svg" viewBox="0 0 167.55 64.96"><defs><style>.cls-1{fill:#3c3c3b;}.cls-2{fill:#f5ca00;}</style></defs><title>Asset 9</title><g id="Layer_2" data-name="Layer 2"><g id="Layer_1-2" data-name="Layer 1"><path class="cls-1" d="M17.54,18V.82a.36.36,0,0,0-.36-.36H13a.36.36,0,0,0-.35.36V7h-6V.82A.36.36,0,0,0,6.32.46H2.16a.36.36,0,0,0-.35.36V18a.36.36,0,0,0,.35.36H6.32A.36.36,0,0,0,6.68,18V11.19h6V18a.36.36,0,0,0,.35.36h4.16A.36.36,0,0,0,17.54,18Z"/><path class="cls-1" d="M23.15,16.23a9,9,0,0,0,3.08,1.93,10.8,10.8,0,0,0,3.86.68A10.89,10.89,0,0,0,34,18.16a9.13,9.13,0,0,0,3.1-1.93,8.89,8.89,0,0,0,2-3,10,10,0,0,0,.74-3.87,9.82,9.82,0,0,0-.74-3.87,8.34,8.34,0,0,0-2-3A9,9,0,0,0,34,.65a11.76,11.76,0,0,0-7.71,0,9.13,9.13,0,0,0-3.09,1.88,8.48,8.48,0,0,0-2,3,9.82,9.82,0,0,0-.73,3.87,10,10,0,0,0,.73,3.87A8.91,8.91,0,0,0,23.15,16.23ZM30.09,4.46A4.51,4.51,0,0,1,32,4.83a4.21,4.21,0,0,1,1.44,1,4.56,4.56,0,0,1,.93,1.54,5.55,5.55,0,0,1,.35,2,5.71,5.71,0,0,1-.35,2,4.56,4.56,0,0,1-.94,1.57,4.47,4.47,0,0,1-1.44,1,4.81,4.81,0,0,1-3.7,0,4.3,4.3,0,0,1-1.42-1,4.88,4.88,0,0,1-.94-1.58,5.71,5.71,0,0,1-.34-2,5.78,5.78,0,0,1,.33-2,4.41,4.41,0,0,1,.93-1.54,4.31,4.31,0,0,1,1.44-1A4.43,4.43,0,0,1,30.09,4.46Z"/><path class="cls-1" d="M54.15,10.39a5.4,5.4,0,0,0-1.38-1.55,7.24,7.24,0,0,0-1.82-1c-.64-.24-1.25-.46-1.83-.65-.4-.13-.76-.25-1.08-.37a4.74,4.74,0,0,1-.78-.37,1.47,1.47,0,0,1-.42-.4,1,1,0,0,1-.12-.54,1.09,1.09,0,0,1,.16-.63,1.49,1.49,0,0,1,.47-.43A1.64,1.64,0,0,1,48,4.23a5.09,5.09,0,0,1,.77-.06,3.7,3.7,0,0,1,1.52.36,3.39,3.39,0,0,1,1.27,1,.38.38,0,0,0,.26.14.41.41,0,0,0,.28-.11l2.64-2.8a.32.32,0,0,0,.1-.26.36.36,0,0,0-.11-.25A8.16,8.16,0,0,0,51.93.58,9.49,9.49,0,0,0,46.34.34a6.86,6.86,0,0,0-2.25,1,5.63,5.63,0,0,0-1.64,1.79,5.26,5.26,0,0,0-.63,2.64,5.12,5.12,0,0,0,.41,2.13A4.64,4.64,0,0,0,43.31,9.4a5.7,5.7,0,0,0,1.5,1,14.63,14.63,0,0,0,1.66.65l1.51.49A5.8,5.8,0,0,1,49,12a2.36,2.36,0,0,1,.59.52,1.1,1.1,0,0,1,.17.62,1.52,1.52,0,0,1-.15.71,1.19,1.19,0,0,1-.41.45,2,2,0,0,1-.64.27,4,4,0,0,1-2.71-.4A4.65,4.65,0,0,1,44.33,13a.4.4,0,0,0-.26-.14.37.37,0,0,0-.27.11l-2.73,2.77a.37.37,0,0,0,0,.5,8,8,0,0,0,3,1.92,10.62,10.62,0,0,0,3.7.67,9.08,9.08,0,0,0,2.55-.36,6.65,6.65,0,0,0,2.23-1.1,5.46,5.46,0,0,0,1.58-1.91,6.09,6.09,0,0,0,.58-2.72A4.58,4.58,0,0,0,54.15,10.39Z"/><path class="cls-1" d="M69.16,1.7A6.79,6.79,0,0,0,66.9.75,12.31,12.31,0,0,0,64.19.46H57.87a.36.36,0,0,0-.36.36V18a.36.36,0,0,0,.36.36H62a.36.36,0,0,0,.36-.36V11.89h1.71a11.66,11.66,0,0,0,2.66-.3,7,7,0,0,0,2.3-1,5,5,0,0,0,1.62-1.79,5.65,5.65,0,0,0,.61-2.71,5.68,5.68,0,0,0-.57-2.66A4.7,4.7,0,0,0,69.16,1.7ZM65.67,7.48a2.7,2.7,0,0,1-.84.3,6.06,6.06,0,0,1-1.06.09H62.38V4.53h1.47a6.94,6.94,0,0,1,1,.07,2.62,2.62,0,0,1,.82.25,1.42,1.42,0,0,1,.52.48,1.59,1.59,0,0,1,.19.81,1.53,1.53,0,0,1-.2.82A1.35,1.35,0,0,1,65.67,7.48Z"/><rect class="cls-1" x="73.49" y="0.46" width="4.89" height="17.92" rx="0.36"/><path class="cls-1" d="M80.62,4.72h4.5V18a.36.36,0,0,0,.36.36h4.15A.36.36,0,0,0,90,18V4.72h4.5a.36.36,0,0,0,.36-.35V.82a.36.36,0,0,0-.36-.36H80.62a.36.36,0,0,0-.36.36V4.37A.36.36,0,0,0,80.62,4.72Z"/><path class="cls-1" d="M105.07.68a.37.37,0,0,0-.33-.22h-4a.37.37,0,0,0-.33.22L93.16,17.89a.33.33,0,0,0,0,.33.37.37,0,0,0,.3.16H98a.35.35,0,0,0,.33-.23L99.52,15h6.17l1.24,3.15a.37.37,0,0,0,.33.23h4.62a.37.37,0,0,0,.3-.16.33.33,0,0,0,0-.33ZM104.28,11H101l1.67-4.51Z"/><path class="cls-1" d="M114.27,18.38H125.1a.36.36,0,0,0,.36-.36V14.4a.36.36,0,0,0-.36-.35h-6.3V.82a.36.36,0,0,0-.35-.36h-4.18a.36.36,0,0,0-.36.36V18A.36.36,0,0,0,114.27,18.38Z"/><rect class="cls-1" x="127.37" y="0.46" width="4.89" height="17.92" rx="0.36"/><path class="cls-1" d="M139,18a.36.36,0,0,0,.35.36h4.16a.36.36,0,0,0,.36-.36V4.72h4.5a.36.36,0,0,0,.36-.35V.82a.36.36,0,0,0-.36-.36H134.5a.36.36,0,0,0-.35.36V4.37a.35.35,0,0,0,.35.35H139Z"/><path class="cls-1" d="M167.51.65a.36.36,0,0,0-.32-.19h-4.86a.37.37,0,0,0-.31.18l-3.36,5.83L155.3.64A.35.35,0,0,0,155,.46h-5a.34.34,0,0,0-.31.19.36.36,0,0,0,0,.36l6.41,9.83V18a.36.36,0,0,0,.36.36h4.15a.36.36,0,0,0,.36-.36V10.84L167.49,1A.38.38,0,0,0,167.51.65Z"/><path class="cls-1" d="M14.17,37H6.53V34.13h6.79a.36.36,0,0,0,.35-.36V30.44a.36.36,0,0,0-.35-.36H6.53V27.54h7.2a.36.36,0,0,0,.36-.35v-3.5a.36.36,0,0,0-.36-.36H2.16a.36.36,0,0,0-.35.36v17.2a.36.36,0,0,0,.35.36h12a.36.36,0,0,0,.35-.36V37.34A.35.35,0,0,0,14.17,37Z"/><path class="cls-1" d="M31,25.23a9.64,9.64,0,0,0-3.29-1.47A16.24,16.24,0,0,0,24,23.33H17.78a.36.36,0,0,0-.36.36v17.2a.36.36,0,0,0,.36.36H24.2a13,13,0,0,0,3.6-.51A9.72,9.72,0,0,0,31,39.12a8.1,8.1,0,0,0,2.31-2.82,8.75,8.75,0,0,0,.88-4.06A9.28,9.28,0,0,0,33.31,28,7.72,7.72,0,0,0,31,25.23ZM22.2,27.59h1.71a8.74,8.74,0,0,1,2,.23,4.9,4.9,0,0,1,1.67.76A3.7,3.7,0,0,1,28.72,30a5.14,5.14,0,0,1,.44,2.26,5.15,5.15,0,0,1-.44,2.25,3.69,3.69,0,0,1-1.15,1.42,4.82,4.82,0,0,1-1.7.78,8.67,8.67,0,0,1-2.06.25H22.2Z"/><path class="cls-1" d="M51.77,23.33H47.62a.36.36,0,0,0-.36.36V34.06a4.6,4.6,0,0,1-.16,1.25,2.75,2.75,0,0,1-.49,1,2.34,2.34,0,0,1-.88.69,3.72,3.72,0,0,1-2.68,0,2.3,2.3,0,0,1-.87-.69,3.08,3.08,0,0,1-.5-1,4.53,4.53,0,0,1-.17-1.24V23.69a.36.36,0,0,0-.35-.36H37a.36.36,0,0,0-.35.36V34.4a8.09,8.09,0,0,0,.53,3,6.58,6.58,0,0,0,1.55,2.31,7,7,0,0,0,2.43,1.5,9.8,9.8,0,0,0,6.36,0A7.36,7.36,0,0,0,50,39.68a6.52,6.52,0,0,0,1.58-2.31,7.7,7.7,0,0,0,.55-3V23.69A.36.36,0,0,0,51.77,23.33Z"/><path class="cls-1" d="M68.25,35.53a.37.37,0,0,0-.28-.1.39.39,0,0,0-.26.15,3.84,3.84,0,0,1-1.35,1.16,4.34,4.34,0,0,1-2,.44,4.56,4.56,0,0,1-1.83-.36,4.11,4.11,0,0,1-1.42-1,4.58,4.58,0,0,1-.94-1.54,5.9,5.9,0,0,1-.34-2,5.7,5.7,0,0,1,.34-2,5,5,0,0,1,.95-1.55,4.42,4.42,0,0,1,1.45-1,4.8,4.8,0,0,1,3.67,0,3.12,3.12,0,0,1,1.38,1.07.35.35,0,0,0,.26.15.34.34,0,0,0,.28-.11L71,26a.34.34,0,0,0,0-.48,7.19,7.19,0,0,0-3-2,10.78,10.78,0,0,0-3.7-.66,11,11,0,0,0-3.8.65,9.14,9.14,0,0,0-3.08,1.89,8.63,8.63,0,0,0-2.07,3,9.94,9.94,0,0,0-.74,3.88,9.8,9.8,0,0,0,.73,3.84,9.05,9.05,0,0,0,2,3,8.84,8.84,0,0,0,3,1.94,10.53,10.53,0,0,0,3.81.68,9.61,9.61,0,0,0,4-.8,8.76,8.76,0,0,0,2.94-2.17.36.36,0,0,0,0-.49Z"/><path class="cls-1" d="M83.51,23.55a.35.35,0,0,0-.33-.22h-4a.35.35,0,0,0-.33.22L71.6,40.75a.41.41,0,0,0,0,.34.37.37,0,0,0,.3.16h4.52a.37.37,0,0,0,.34-.23L78,37.87h6.17L85.38,41a.35.35,0,0,0,.33.23h4.62a.34.34,0,0,0,.29-.16.37.37,0,0,0,0-.34Zm-.79,10.28h-3.3l1.67-4.51Z"/><path class="cls-1" d="M103.06,23.33H89.18a.36.36,0,0,0-.35.36v3.54a.36.36,0,0,0,.35.36h4.51v13.3a.36.36,0,0,0,.35.36H98.2a.36.36,0,0,0,.36-.36V27.59h4.5a.36.36,0,0,0,.36-.36V23.69A.36.36,0,0,0,103.06,23.33Z"/><rect class="cls-1" x="105.19" y="23.33" width="4.89" height="17.92" rx="0.36"/><path class="cls-1" d="M129.45,25.39a9.31,9.31,0,0,0-3.1-1.87,11.79,11.79,0,0,0-7.72,0,9.22,9.22,0,0,0-3.08,1.87,8.47,8.47,0,0,0-2,3,10.46,10.46,0,0,0,0,7.73,8.93,8.93,0,0,0,2,3A9.18,9.18,0,0,0,118.63,41a10.76,10.76,0,0,0,3.86.68,10.89,10.89,0,0,0,3.87-.68,9.09,9.09,0,0,0,3.09-1.93,9,9,0,0,0,2-3,10.6,10.6,0,0,0,0-7.73A8.61,8.61,0,0,0,129.45,25.39Zm-7,11.81a4.43,4.43,0,0,1-1.85-.37,4.16,4.16,0,0,1-1.43-1,4.7,4.7,0,0,1-.93-1.57,5.94,5.94,0,0,1,0-4,4.26,4.26,0,0,1,.93-1.54,4.49,4.49,0,0,1,1.44-1,4.78,4.78,0,0,1,3.71,0,4.19,4.19,0,0,1,1.43,1,4.73,4.73,0,0,1,.94,1.55,5.55,5.55,0,0,1,.34,2,5.71,5.71,0,0,1-.34,2,4.58,4.58,0,0,1-1,1.57,4.24,4.24,0,0,1-1.44,1A4.42,4.42,0,0,1,122.49,37.2Z"/><path class="cls-1" d="M150.9,23.33h-4a.39.39,0,0,0-.25.1.35.35,0,0,0-.1.26l.08,10.06-6.3-10.25a.34.34,0,0,0-.3-.17h-4.74a.36.36,0,0,0-.36.36v17.2a.36.36,0,0,0,.36.36h4a.36.36,0,0,0,.26-.11.39.39,0,0,0,.1-.25l-.09-10.09,6.33,10.28a.36.36,0,0,0,.3.17h4.72a.36.36,0,0,0,.35-.36V23.69A.36.36,0,0,0,150.9,23.33Z"/><path class="cls-2" d="M6.78,47.27h6.15l6.7,17.2H13.34L12.44,62H7l-.85,2.52H0Zm3,6L8.36,57.52h2.79Z"/><path class="cls-2" d="M29.7,64.47H23.87l-4.69-17.2H25.3l1.85,9.67h.1l2-9.67h6.05l2.16,9.67h.1l1.87-9.67h5.93l-4.79,17.2H34.73L32.3,54.75h-.1Z"/><path class="cls-2" d="M51.54,47.27h6.14l6.71,17.2H58.1L57.2,62H51.73l-.85,2.52H44.76Zm3,6-1.41,4.25h2.79Z"/><path class="cls-2" d="M66.56,47.27H74a12.5,12.5,0,0,1,2.51.25,6.35,6.35,0,0,1,2.24.9,4.82,4.82,0,0,1,1.59,1.73,5.41,5.41,0,0,1,.61,2.71,4.88,4.88,0,0,1-3,4.64l4.37,7H75.64l-3.3-6.14h-.17v6.14H66.56Zm5.56,7.26h1.14a5.1,5.1,0,0,0,.64,0,2.36,2.36,0,0,0,.65-.21,1.41,1.41,0,0,0,.5-.44,1.18,1.18,0,0,0,.21-.74,1.38,1.38,0,0,0-.17-.73,1.06,1.06,0,0,0-.44-.4,1.57,1.57,0,0,0-.57-.17c-.21,0-.41,0-.58,0H72.12Z"/><path class="cls-2" d="M84.63,64.47V47.27h6.42a18.29,18.29,0,0,1,3.9.4,9.2,9.2,0,0,1,3.28,1.38,7.06,7.06,0,0,1,2.27,2.62,8.75,8.75,0,0,1,.85,4.1,8.85,8.85,0,0,1-.81,3.92,7.67,7.67,0,0,1-2.18,2.71A9.2,9.2,0,0,1,95.23,64a13.31,13.31,0,0,1-3.69.51ZM90.2,52.18v7.31h1.07a4.86,4.86,0,0,0,3.13-.88,3.52,3.52,0,0,0,1.1-2.9,3.23,3.23,0,0,0-1.1-2.6,4.34,4.34,0,0,0-2.91-.93Z"/><path class="cls-2" d="M110,65a11.66,11.66,0,0,1-2-.18,11.32,11.32,0,0,1-1.94-.53,11.87,11.87,0,0,1-1.76-.83,8.25,8.25,0,0,1-1.49-1.05l3.53-3.83a5.54,5.54,0,0,0,1.61,1.17,4.56,4.56,0,0,0,2.08.51,2.35,2.35,0,0,0,.89-.17.63.63,0,0,0,.4-.63.68.68,0,0,0-.14-.42,1.49,1.49,0,0,0-.47-.35,8.8,8.8,0,0,0-.94-.4c-.39-.15-.89-.32-1.49-.51a13.82,13.82,0,0,1-1.68-.7,5.89,5.89,0,0,1-1.42-1,4.36,4.36,0,0,1-1-1.4,4.7,4.7,0,0,1-.37-2,5.31,5.31,0,0,1,.66-2.73,5.85,5.85,0,0,1,1.69-1.84,7.06,7.06,0,0,1,2.32-1,10.73,10.73,0,0,1,2.55-.32,9.81,9.81,0,0,1,3.46.66,9.33,9.33,0,0,1,3.1,1.89L113.94,53a3.69,3.69,0,0,0-1.43-1.1,3.89,3.89,0,0,0-1.53-.38,2.45,2.45,0,0,0-1,.18.64.64,0,0,0,0,1.18,12.24,12.24,0,0,0,1.3.49c.62.19,1.27.42,2,.68a8.1,8.1,0,0,1,1.88,1,5.28,5.28,0,0,1,1.42,1.52,4.17,4.17,0,0,1,.56,2.23,5.68,5.68,0,0,1-.62,2.71,5.84,5.84,0,0,1-1.63,1.92,7,7,0,0,1-2.27,1.14A9,9,0,0,1,110,65Z"/></g></g></svg>