<svg xmlns="http://www.w3.org/2000/svg" viewBox="0 0 61.53 61.51"><defs><style>.cls-1{fill:#f5ca00;}</style></defs><title>Asset 1</title><g id="Layer_2" data-name="Layer 2"><g id="Layer_1-2" data-name="Layer 1"><path class="cls-1" d="M43.16,11.73A6.13,6.13,0,1,0,37,17.86,6.15,6.15,0,0,0,43.16,11.73Zm-2.53,0A3.6,3.6,0,1,1,37,8.12,3.6,3.6,0,0,1,40.63,11.73Z"/><path class="cls-1" d="M27.22,9.05a1.27,1.27,0,1,0,0-2.53H24.88a1.27,1.27,0,0,0,0,2.53Z"/><path class="cls-1" d="M7.29,9.05H19.12a1.27,1.27,0,0,0,0-2.53H7.29a1.27,1.27,0,0,0,0,2.53Z"/><path class="cls-1" d="M7.29,16.93h3.05a1.27,1.27,0,1,0,0-2.53h-3a1.27,1.27,0,0,0,0,2.53Z"/><path class="cls-1" d="M16.11,14.4a1.27,1.27,0,1,0,0,2.53H18a1.27,1.27,0,0,0,0-2.53Z"/><path class="cls-1" d="M7.29,13H27.22a1.27,1.27,0,1,0,0-2.53H7.29a1.27,1.27,0,0,0,0,2.53Z"/><path class="cls-1" d="M9.63,27.74H39.57a3.6,3.6,0,0,0,0-7.2H9.63a3.6,3.6,0,0,0,0,7.2Zm-1.07-3.6a1.07,1.07,0,0,1,1.07-1.07H39.57a1.07,1.07,0,0,1,0,2.14H9.63A1.07,1.07,0,0,1,8.56,24.14Z"/><path class="cls-1" d="M9.63,35.9H39.57a3.6,3.6,0,0,0,0-7.19H9.63a3.6,3.6,0,1,0,0,7.19ZM8.56,32.3a1.07,1.07,0,0,1,1.07-1.06H39.57a1.07,1.07,0,0,1,0,2.13H9.63A1.07,1.07,0,0,1,8.56,32.3Z"/><path class="cls-1" d="M9.63,44.07H39.57a3.6,3.6,0,0,0,0-7.2H9.63a3.6,3.6,0,1,0,0,7.2Zm-1.07-3.6A1.07,1.07,0,0,1,9.63,39.4H39.57a1.07,1.07,0,0,1,0,2.14H9.63A1.07,1.07,0,0,1,8.56,40.47Z"/><path class="cls-1" d="M9.63,52.23h21a3.6,3.6,0,0,0,0-7.2h-21a3.6,3.6,0,0,0,0,7.2Zm-1.07-3.6a1.07,1.07,0,0,1,1.07-1.07h21a1.07,1.07,0,0,1,0,2.14h-21A1.07,1.07,0,0,1,8.56,48.63Z"/><path class="cls-1" d="M58.37,47.57h-3V45a2.24,2.24,0,0,0-1.06-1.9l1.24-5.7A6.07,6.07,0,0,0,49.65,30l-.46,0V3.33A3.34,3.34,0,0,0,45.86,0H3.33A3.34,3.34,0,0,0,0,3.33v9.55a1.27,1.27,0,0,0,2.53,0V3.33a.8.8,0,0,1,.8-.8H45.86a.8.8,0,0,1,.8.8V30.81A6.11,6.11,0,0,0,45,32.17a6,6,0,0,0-1.36,3,1.27,1.27,0,1,0,2.5.39,3.53,3.53,0,0,1,6.18-1.73,3.56,3.56,0,0,1,.76,3l-1.29,5.9H47.48l-.76-3.51a1.26,1.26,0,1,0-2.47.54L45,43.08A2.21,2.21,0,0,0,43.91,45v2.59h-3a3.17,3.17,0,0,0-3.16,3.16V53a3.17,3.17,0,0,0,2.9,3.15l.48,2.11a4.32,4.32,0,0,0,.23.72h-38a.8.8,0,0,1-.8-.8V17A1.27,1.27,0,0,0,0,17V58.18a3.34,3.34,0,0,0,3.33,3.33H54.1a4.12,4.12,0,0,0,4-3.24l.48-2.11A3.16,3.16,0,0,0,61.53,53V50.73A3.16,3.16,0,0,0,58.37,47.57ZM55.68,57.71A1.6,1.6,0,0,1,54.1,59H45.19a1.62,1.62,0,0,1-1.58-1.26l-.35-1.55H56ZM46.44,47.57v-2.3h6.42v2.3ZM59,50.73V53a.63.63,0,0,1-.63.63H40.92a.63.63,0,0,1-.63-.63V50.73a.63.63,0,0,1,.63-.63H58.37A.63.63,0,0,1,59,50.73Z"/></g></g></svg>